<?xml version="1.0" standalone="no"?>
<!DOCTYPE svg PUBLIC "-//W3C//DTD SVG 20010904//EN"
 "http://www.w3.org/TR/2001/REC-SVG-20010904/DTD/svg10.dtd">
<svg version="1.0" xmlns="http://www.w3.org/2000/svg"
 width="128.000000pt" height="128.000000pt" viewBox="0 0 128.000000 128.000000"
 preserveAspectRatio="xMidYMid meet">
<metadata>
Created by potrace 1.11, written by Peter Selinger 2001-2013
</metadata>
<g transform="translate(0.000000,128.000000) scale(0.100000,-0.100000)"
fill="#000000" stroke="none">
<path d="M420 1233 c-14 -2 -32 -6 -40 -9 -8 -3 -16 -5 -18 -4 -1 0 -16 -7
-32 -15 -17 -9 -30 -13 -30 -10 0 13 -94 -62 -131 -104 -216 -244 -82 -645
238 -708 29 -5 77 -7 126 -5 20 2 26 6 21 15 -6 9 -5 9 7 0 11 -9 26 -7 68 7
29 11 60 25 69 32 9 7 13 8 9 2 -8 -13 36 -57 47 -47 4 5 6 3 4 -3 -4 -14 54
-74 65 -67 6 3 7 2 4 -3 -6 -11 117 -144 133 -144 6 0 10 -3 10 -8 0 -6 -92
-6 -192 1 -21 1 -38 -1 -38 -6 0 -4 -8 -4 -17 1 -19 9 -136 8 -386 -2 -222 -8
-287 -20 -287 -51 0 -9 4 -14 9 -11 5 4 11 1 13 -4 5 -16 91 -25 250 -25 82 0
148 -3 148 -6 0 -8 94 -4 108 5 7 4 12 3 12 -1 0 -5 80 -8 178 -7 255 2 254 2
246 17 -6 9 -4 9 7 1 24 -19 177 -3 191 19 12 19 9 24 -19 35 -37 14 -77 21
-137 24 -40 1 -46 4 -31 12 48 28 120 115 120 145 0 9 -17 34 -37 55 -21 22
-38 43 -38 47 0 5 -11 11 -25 15 -23 6 -30 16 -26 38 1 5 -5 6 -13 3 -9 -4
-15 -3 -13 1 4 13 -67 83 -79 78 -9 -3 -11 1 -7 11 4 9 -1 21 -11 28 -16 12
-16 17 5 76 29 87 29 202 0 284 -26 74 -81 157 -99 150 -7 -3 -10 0 -6 6 7 12
-53 68 -73 69 -7 0 -13 4 -13 9 0 5 -8 11 -17 14 -10 3 -38 13 -63 22 -43 16
-156 26 -210 18z m305 -401 c-3 -3 -11 0 -18 7 -9 10 -8 11 6 5 10 -3 15 -9
12 -12z m92 -114 c-3 -7 -5 -2 -5 12 0 14 2 19 5 13 2 -7 2 -19 0 -25z m-47
-3 c-7 -8 -17 -15 -23 -15 -6 0 -2 7 9 15 25 19 30 19 14 0z m-115 -65 c-3 -5
-12 -10 -18 -10 -7 0 -6 4 3 10 19 12 23 12 15 0z m-158 -56 c-3 -3 -12 -4
-19 -1 -8 3 -5 6 6 6 11 1 17 -2 13 -5z m87 -120 c3 -8 2 -12 -4 -9 -6 3 -10
10 -10 16 0 14 7 11 14 -7z m81 -44 c-3 -5 -12 -10 -18 -10 -7 0 -6 4 3 10 19
12 23 12 15 0z m245 -164 c0 -2 -7 -7 -16 -10 -8 -3 -12 -2 -9 4 6 10 25 14
25 6z"/>
</g>
</svg>
